<svg width="512pt" height="512pt" viewBox="0 0 512 512" version="1.1" xmlns="http://www.w3.org/2000/svg">
    <g id="#000000ff">
        <path fill="rgb(59, 200, 30)" opacity="1.00" d=" M 53.29 367.39 C 63.36 366.30 73.79 369.04 81.98 375.03 C 92.19 382.33 98.82 394.43 99.29 407.00 C 99.48 413.65 99.32 420.31 99.37 426.97 C 99.30 433.38 99.77 439.90 98.21 446.19 C 95.69 456.94 88.67 466.51 79.21 472.20 C 68.17 479.03 53.83 480.16 41.88 475.09 C 30.13 470.31 20.85 459.89 17.52 447.64 C 15.23 439.64 16.22 431.24 16.00 423.04 C 16.23 413.72 15.03 404.07 18.35 395.14 C 23.44 380.22 37.58 368.94 53.29 367.39 Z" />
        <path fill="rgb(59, 200, 30)" opacity="0.4" d=" M 182.43 256.71 C 193.64 254.64 205.67 257.40 214.76 264.32 C 225.27 272.06 231.72 284.94 231.56 298.00 C 231.59 344.02 231.58 390.05 231.57 436.07 C 231.84 450.86 223.54 465.39 210.66 472.66 C 199.27 479.40 184.58 480.07 172.61 474.44 C 158.23 468.00 148.24 452.88 148.24 437.08 C 148.21 390.16 148.16 343.23 148.27 296.30 C 148.55 277.23 163.67 259.88 182.43 256.71 Z" />
        <path fill="rgb(59, 200, 30)" opacity="0.4" d=" M 316.27 145.30 C 328.40 143.52 341.21 147.47 350.19 155.84 C 358.86 163.67 363.90 175.27 363.78 186.95 C 363.81 268.31 363.77 349.66 363.79 431.02 C 363.79 435.72 363.90 440.47 362.87 445.09 C 360.47 456.90 352.59 467.41 342.01 473.15 C 330.47 479.58 315.80 479.94 303.97 474.03 C 289.68 467.27 280.09 451.83 280.46 436.01 C 280.44 354.01 280.46 272.01 280.45 190.02 C 280.28 183.62 280.95 177.11 283.43 171.16 C 288.77 157.53 301.75 147.27 316.27 145.30 Z" />
        <path fill="rgb(59, 200, 30)" opacity="0.4" d=" M 446.43 34.50 C 458.41 32.14 471.37 35.37 480.73 43.25 C 490.43 51.12 496.18 63.52 495.99 76.01 C 496.00 196.02 496.00 316.03 495.99 436.04 C 496.17 448.51 490.40 460.87 480.73 468.74 C 472.26 475.82 460.88 479.22 449.92 478.01 C 436.23 476.64 423.61 467.91 417.35 455.68 C 413.99 449.36 412.51 442.16 412.65 435.02 C 412.68 315.00 412.62 194.98 412.68 74.96 C 412.53 55.71 427.53 37.90 446.43 34.50 Z" />
    </g>
</svg>
