<svg style="height: 3.5em;margin-right: 10px;margin-top: 5px;fill: #FFFFFF;" height="520pt" viewBox="0 0 520 520" version="1.1" xmlns="http://www.w3.org/2000/svg">
    <path fill="#FFFFFF" stroke="#000000" stroke-width="10" stroke-miterlimit="10" d="M57,283" />
    <g>
        <path d="M399 384.2C376.9 345.8 335.4 320 288 320H224c-47.4 0-88.9 25.8-111 64.2c35.2 39.2 86.2 63.8 143 63.8s107.8-24.7 143-63.8zM0 256a256 256 0 1 1 512 0A256 256 0 1 1 0 256zm256 16a72 72 0 1 0 0-144 72 72 0 1 0 0 144z" />
    </g>
</svg>